<?xml version="1.0" encoding="UTF-8"?>
<svg xmlns="http://www.w3.org/2000/svg" xmlns:xlink="http://www.w3.org/1999/xlink" width="510.23pt" height="125.33pt" viewBox="0 0 510.23 125.33" version="1.1">
<defs>
<clipPath id="clip1">
  <path d="M 25 0 L 119 0 L 119 125.328125 L 25 125.328125 Z M 25 0 "/>
</clipPath>
<clipPath id="clip2">
  <path d="M 0 0 L 63 0 L 63 125.328125 L 0 125.328125 Z M 0 0 "/>
</clipPath>
<clipPath id="clip3">
  <path d="M 96 0 L 187 0 L 187 125.328125 L 96 125.328125 Z M 96 0 "/>
</clipPath>
<clipPath id="clip4">
  <path d="M 474 35 L 510.230469 35 L 510.230469 72 L 474 72 Z M 474 35 "/>
</clipPath>
</defs>
<g id="surface1">
<g clip-path="url(#clip1)" clip-rule="nonzero">
<path style=" stroke:none;fill-rule:nonzero;fill:rgb(1.599121%,41.598511%,70.199585%);fill-opacity:1;" d="M 118.261719 8.179688 C 120.09375 5.054688 117.007813 1.601563 111.476563 0.410156 C 105.988281 -0.765625 99.964844 0.6875 97.921875 3.714844 L 27.425781 108.542969 C 23.457031 114.460938 25.964844 121.824219 33.554688 124.402344 C 41.238281 127.019531 50.695313 123.804688 54.433594 117.394531 L 118.261719 8.179688 "/>
</g>
<g clip-path="url(#clip2)" clip-rule="nonzero">
<path style=" stroke:none;fill-rule:nonzero;fill:rgb(1.599121%,41.598511%,70.199585%);fill-opacity:1;" d="M 3.324219 124.921875 C -0.015625 123.746094 -0.988281 120.445313 1.089844 117.585938 L 41.121094 62.488281 C 44.414063 57.960938 41.121094 53.941406 41.121094 53.941406 L 4.691406 9.265625 C 2.355469 6.398438 4.996094 2.675781 10.46875 0.929688 C 15.875 -0.804688 22.179688 -0.03125 24.667969 2.683594 L 61.589844 43.15625 C 61.589844 43.15625 64.726563 46.582031 61.589844 51.136719 L 13.113281 121.726563 C 11.089844 124.652344 6.699219 126.09375 3.324219 124.921875 "/>
</g>
<g clip-path="url(#clip3)" clip-rule="nonzero">
<path style=" stroke:none;fill-rule:nonzero;fill:rgb(92.89856%,49.398804%,13.299561%);fill-opacity:1;" d="M 166.644531 0.203125 C 164.050781 -0.328125 162.675781 0.171875 160.777344 1.613281 L 98.023438 49.238281 C 98.023438 49.238281 93.582031 52.707031 98.914063 58.050781 L 159.742188 119.496094 C 165.496094 125.3125 175.617188 127.089844 181.96875 123.265625 C 188.191406 119.511719 188.207031 111.988281 182.269531 106.523438 L 119.640625 48.917969 C 117.332031 46.789063 117.058594 46.140625 119.433594 44.246094 L 170.148438 3.789063 C 171.339844 2.628906 169.238281 0.734375 166.644531 0.203125 "/>
</g>
<path style=" stroke:none;fill-rule:nonzero;fill:rgb(92.89856%,49.398804%,13.299561%);fill-opacity:1;" d="M 377.511719 65.050781 C 379.007813 66.546875 379.007813 68.976563 377.511719 70.46875 C 376.011719 71.960938 373.597656 71.960938 372.097656 70.46875 L 358.050781 56.417969 C 357.300781 55.667969 356.925781 54.6875 356.925781 53.710938 C 356.925781 52.730469 357.300781 51.746094 358.050781 51 L 372.097656 36.949219 C 373.597656 35.445313 376.011719 35.445313 377.511719 36.949219 C 379.007813 38.441406 379.007813 40.867188 377.511719 42.359375 L 366.175781 53.710938 L 377.511719 65.050781 "/>
<path style=" stroke:none;fill-rule:nonzero;fill:rgb(92.89856%,49.398804%,13.299561%);fill-opacity:1;" d="M 439.265625 39.632813 C 439.265625 41.746094 437.542969 43.457031 435.433594 43.457031 C 429.773438 43.457031 425.1875 48.058594 425.1875 53.710938 L 425.1875 67.785156 C 425.1875 69.902344 423.46875 71.609375 421.347656 71.609375 C 419.242188 71.609375 417.527344 69.902344 417.527344 67.785156 L 417.527344 53.710938 C 417.527344 43.839844 425.5625 35.804688 435.433594 35.804688 C 437.542969 35.804688 439.265625 37.523438 439.265625 39.632813 "/>
<path style=" stroke:none;fill-rule:nonzero;fill:rgb(92.89856%,49.398804%,13.299561%);fill-opacity:1;" d="M 396.621094 63.949219 C 390.960938 63.949219 386.371094 59.359375 386.371094 53.710938 C 386.371094 48.058594 390.960938 43.457031 396.621094 43.457031 C 402.261719 43.457031 406.851563 48.058594 406.851563 53.710938 C 406.851563 59.359375 402.261719 63.949219 396.621094 63.949219 Z M 396.621094 35.804688 C 386.746094 35.804688 378.710938 43.839844 378.710938 53.710938 C 378.710938 63.578125 386.746094 71.609375 396.621094 71.609375 C 400.441406 71.609375 403.988281 70.394531 406.90625 68.34375 C 407.179688 70.195313 408.761719 71.609375 410.683594 71.609375 C 412.800781 71.609375 414.507813 69.902344 414.507813 67.785156 L 414.507813 53.710938 C 414.507813 43.839844 406.476563 35.804688 396.621094 35.804688 "/>
<path style=" stroke:none;fill-rule:nonzero;fill:rgb(1.599121%,41.598511%,70.199585%);fill-opacity:1;" d="M 277.34375 39.632813 C 277.34375 41.746094 275.625 43.457031 273.515625 43.457031 C 267.863281 43.457031 263.265625 48.058594 263.265625 53.710938 L 263.265625 67.785156 C 263.265625 69.902344 261.546875 71.609375 259.429688 71.609375 C 257.3125 71.609375 255.617188 69.902344 255.617188 67.785156 L 255.617188 53.710938 C 255.617188 43.839844 263.640625 35.804688 273.515625 35.804688 C 275.625 35.804688 277.34375 37.523438 277.34375 39.632813 "/>
<path style=" stroke:none;fill-rule:nonzero;fill:rgb(1.599121%,41.598511%,70.199585%);fill-opacity:1;" d="M 248.613281 35.804688 C 246.496094 35.804688 244.78125 37.523438 244.78125 39.632813 L 244.78125 54.082031 C 244.78125 59.734375 240.566406 63.949219 234.90625 63.949219 C 229.257813 63.949219 225.042969 59.734375 225.042969 54.082031 L 225.042969 39.632813 C 225.042969 37.523438 223.320313 35.804688 221.207031 35.804688 C 219.089844 35.804688 217.382813 37.523438 217.382813 39.632813 L 217.382813 54.082031 C 217.382813 63.957031 225.03125 71.609375 234.90625 71.609375 C 244.800781 71.609375 252.453125 63.957031 252.453125 54.082031 L 252.453125 39.632813 C 252.453125 37.523438 250.730469 35.804688 248.613281 35.804688 "/>
<path style=" stroke:none;fill-rule:nonzero;fill:rgb(1.599121%,41.598511%,70.199585%);fill-opacity:1;" d="M 293.199219 35.804688 L 287.460938 35.804688 L 287.460938 29.457031 C 287.460938 27.347656 285.742188 25.636719 283.636719 25.636719 C 281.515625 25.636719 279.8125 27.347656 279.8125 29.457031 L 279.8125 67.785156 C 279.8125 69.902344 281.515625 71.609375 283.636719 71.609375 C 285.742188 71.609375 287.460938 69.902344 287.460938 67.785156 L 287.460938 43.464844 L 293.199219 43.464844 C 295.316406 43.464844 297.03125 41.746094 297.03125 39.632813 C 297.03125 37.523438 295.316406 35.804688 293.199219 35.804688 "/>
<path style=" stroke:none;fill-rule:nonzero;fill:rgb(1.599121%,41.598511%,70.199585%);fill-opacity:1;" d="M 303.960938 35.804688 C 301.84375 35.804688 300.132813 37.523438 300.132813 39.632813 L 300.132813 67.785156 C 300.132813 69.902344 301.84375 71.609375 303.960938 71.609375 C 306.074219 71.609375 307.789063 69.902344 307.789063 67.785156 L 307.789063 39.632813 C 307.789063 37.523438 306.074219 35.804688 303.960938 35.804688 "/>
<path style=" stroke:none;fill-rule:nonzero;fill:rgb(1.599121%,41.598511%,70.199585%);fill-opacity:1;" d="M 303.960938 25.636719 C 301.808594 25.636719 300.050781 27.382813 300.050781 29.546875 C 300.050781 31.695313 301.808594 33.4375 303.960938 33.4375 C 306.117188 33.4375 307.863281 31.695313 307.863281 29.546875 C 307.863281 27.382813 306.117188 25.636719 303.960938 25.636719 "/>
<path style=" stroke:none;fill-rule:nonzero;fill:rgb(1.599121%,41.598511%,70.199585%);fill-opacity:1;" d="M 350.625 35.804688 C 348.507813 35.804688 346.800781 37.523438 346.800781 39.632813 L 346.800781 67.785156 C 346.800781 69.902344 348.507813 71.609375 350.625 71.609375 C 352.738281 71.609375 354.453125 69.902344 354.453125 67.785156 L 354.453125 39.632813 C 354.453125 37.523438 352.738281 35.804688 350.625 35.804688 "/>
<path style=" stroke:none;fill-rule:nonzero;fill:rgb(1.599121%,41.598511%,70.199585%);fill-opacity:1;" d="M 346.707031 29.546875 C 346.707031 27.382813 348.464844 25.636719 350.625 25.636719 C 352.785156 25.636719 354.535156 27.382813 354.535156 29.546875 C 354.535156 31.695313 352.785156 33.4375 350.625 33.4375 C 348.464844 33.4375 346.707031 31.695313 346.707031 29.546875 "/>
<path style=" stroke:none;fill-rule:nonzero;fill:rgb(1.599121%,41.598511%,70.199585%);fill-opacity:1;" d="M 336.632813 60.957031 C 334.78125 62.8125 332.214844 63.949219 329.386719 63.949219 C 323.734375 63.949219 319.132813 59.371094 319.132813 53.710938 C 319.132813 48.046875 323.734375 43.457031 329.386719 43.457031 C 332.214844 43.457031 334.78125 44.609375 336.632813 46.460938 C 338.128906 47.957031 340.554688 47.957031 342.054688 46.460938 C 343.542969 44.964844 343.542969 42.542969 342.054688 41.050781 C 338.808594 37.804688 334.335938 35.804688 329.386719 35.804688 C 319.5 35.804688 311.484375 43.816406 311.484375 53.710938 C 311.484375 62.285156 317.527344 69.457031 325.582031 71.199219 C 325.570313 71.335938 325.558594 71.464844 325.558594 71.609375 L 325.558594 75.433594 C 325.558594 77.554688 333.214844 77.554688 333.214844 75.433594 L 333.214844 71.609375 C 333.214844 71.464844 333.203125 71.335938 333.199219 71.199219 C 336.609375 70.460938 339.664063 68.746094 342.054688 66.355469 C 343.542969 64.871094 343.542969 62.445313 342.054688 60.957031 C 340.554688 59.460938 338.128906 59.460938 336.632813 60.957031 "/>
<g clip-path="url(#clip4)" clip-rule="nonzero">
<path style=" stroke:none;fill-rule:nonzero;fill:rgb(92.89856%,49.398804%,13.299561%);fill-opacity:1;" d="M 492.328125 63.949219 C 486.679688 63.949219 482.082031 59.359375 482.082031 53.710938 C 482.082031 48.058594 486.679688 43.457031 492.328125 43.457031 C 497.980469 43.457031 502.574219 48.058594 502.574219 53.710938 C 502.574219 59.359375 497.980469 63.949219 492.328125 63.949219 Z M 492.328125 35.804688 C 482.457031 35.804688 474.433594 43.839844 474.433594 53.710938 C 474.433594 63.578125 482.457031 71.609375 492.328125 71.609375 C 502.203125 71.609375 510.226563 63.578125 510.226563 53.710938 C 510.226563 43.839844 502.203125 35.804688 492.328125 35.804688 "/>
</g>
<path style=" stroke:none;fill-rule:nonzero;fill:rgb(92.89856%,49.398804%,13.299561%);fill-opacity:1;" d="M 464.886719 53.710938 C 464.886719 48.058594 460.296875 43.457031 454.636719 43.457031 C 448.980469 43.457031 444.398438 48.058594 444.398438 53.710938 C 444.398438 59.359375 448.980469 63.949219 454.636719 63.949219 C 460.296875 63.949219 464.886719 59.359375 464.886719 53.710938 Z M 472.542969 74.195313 C 472.542969 84.09375 464.703125 92.105469 455.015625 92.105469 C 447.238281 92.105469 448.597656 87.179688 448.597656 87.179688 C 448.597656 87.179688 449.222656 84.242188 452.238281 84.242188 C 452.96875 84.242188 453.699219 84.457031 455.015625 84.457031 C 460.46875 84.457031 464.886719 79.851563 464.886719 74.195313 L 464.890625 68.375 C 461.988281 70.421875 458.449219 71.609375 454.636719 71.609375 C 444.761719 71.609375 436.734375 63.578125 436.734375 53.710938 C 436.734375 43.839844 444.761719 35.804688 454.636719 35.804688 C 464.511719 35.804688 472.542969 43.839844 472.542969 53.710938 L 472.542969 74.195313 "/>
<path style=" stroke:none;fill-rule:nonzero;fill:rgb(1.599121%,41.598511%,70.199585%);fill-opacity:1;" d="M 196.546875 84.449219 C 201.992188 84.449219 206.402344 79.851563 206.402344 74.195313 L 206.414063 68.375 C 203.507813 70.40625 200.351563 71.609375 196.546875 71.609375 C 186.671875 71.609375 179.027344 63.886719 179.027344 54.015625 L 179.027344 39.632813 C 179.027344 37.523438 180.734375 35.804688 182.855469 35.804688 C 184.960938 35.804688 186.671875 37.523438 186.671875 39.632813 L 186.671875 54.015625 C 186.671875 59.667969 190.886719 63.949219 196.546875 63.949219 C 202.1875 63.949219 206.402344 59.734375 206.402344 54.082031 L 206.402344 39.632813 C 206.402344 37.523438 208.125 35.804688 210.230469 35.804688 C 212.347656 35.804688 214.0625 37.523438 214.0625 39.632813 L 214.0625 74.195313 C 214.0625 84.082031 206.214844 92.105469 196.546875 92.105469 C 188.761719 92.105469 190.121094 87.179688 190.121094 87.179688 C 190.121094 87.179688 190.746094 84.230469 193.753906 84.230469 C 194.488281 84.230469 195.21875 84.449219 196.546875 84.449219 "/>
</g>
</svg>
